<svg xmlns="http://www.w3.org/2000/svg" width="1280" height="310" viewBox="0 0 1280 310">
  <rect width="100%" height="100%" fill="#ffffff"/>
  <text x="40" y="42" font-family="Inter, Arial, sans-serif" font-size="28" font-weight="700" fill="#172033">Current Local Document Processing Flow</text>
  <text x="40" y="66" font-size="18" fill="#5b677a">What the codebase does today</text>
  <rect x="45" y="110" width="132" height="88" rx="10" fill="#2457c5"/><text x="111.0" y="138" text-anchor="middle" font-family="Arial" font-size="17" font-weight="700" fill="white">Upload</text><text x="111.0" y="163" text-anchor="middle" font-family="Arial" font-size="12" fill="white">Staff scan/photo</text><text x="111.0" y="180" text-anchor="middle" font-family="Arial" font-size="12" fill="white">file saved + audit</text><line x1="182" y1="154.0" x2="194" y2="154.0" stroke="#98a2b3" stroke-width="3"/><polygon points="194,148.0 204,154.0 194,160.0" fill="#98a2b3"/><rect x="199" y="110" width="132" height="88" rx="10" fill="#2d7a78"/><text x="265.0" y="138" text-anchor="middle" font-family="Arial" font-size="17" font-weight="700" fill="white">Preprocess</text><text x="265.0" y="163" text-anchor="middle" font-family="Arial" font-size="12" fill="white">deskew, denoise,</text><text x="265.0" y="180" text-anchor="middle" font-family="Arial" font-size="12" fill="white">contrast, sharpen</text><line x1="336" y1="154.0" x2="348" y2="154.0" stroke="#98a2b3" stroke-width="3"/><polygon points="348,148.0 358,154.0 348,160.0" fill="#98a2b3"/><rect x="353" y="110" width="132" height="88" rx="10" fill="#6f59c9"/><text x="419.0" y="138" text-anchor="middle" font-family="Arial" font-size="17" font-weight="700" fill="white">EasyOCR</text><text x="419.0" y="163" text-anchor="middle" font-family="Arial" font-size="12" fill="white">text + word boxes</text><text x="419.0" y="180" text-anchor="middle" font-family="Arial" font-size="12" fill="white">for image masks</text><line x1="490" y1="154.0" x2="502" y2="154.0" stroke="#98a2b3" stroke-width="3"/><polygon points="502,148.0 512,154.0 502,160.0" fill="#98a2b3"/><rect x="507" y="110" width="132" height="88" rx="10" fill="#b1579a"/><text x="573.0" y="138" text-anchor="middle" font-family="Arial" font-size="17" font-weight="700" fill="white">Transcribe</text><text x="573.0" y="163" text-anchor="middle" font-family="Arial" font-size="12" fill="white">EasyOCR baseline now</text><text x="573.0" y="180" text-anchor="middle" font-family="Arial" font-size="12" fill="white">optional Qwen MLX VLM</text><line x1="644" y1="154.0" x2="656" y2="154.0" stroke="#98a2b3" stroke-width="3"/><polygon points="656,148.0 666,154.0 656,160.0" fill="#98a2b3"/><rect x="661" y="110" width="132" height="88" rx="10" fill="#c43d4b"/><text x="727.0" y="138" text-anchor="middle" font-family="Arial" font-size="17" font-weight="700" fill="white">Redact</text><text x="727.0" y="163" text-anchor="middle" font-family="Arial" font-size="12" fill="white">profiles + regex +</text><text x="727.0" y="180" text-anchor="middle" font-family="Arial" font-size="12" fill="white">fields + black boxes</text><line x1="798" y1="154.0" x2="810" y2="154.0" stroke="#98a2b3" stroke-width="3"/><polygon points="810,148.0 820,154.0 810,160.0" fill="#98a2b3"/><rect x="815" y="110" width="132" height="88" rx="10" fill="#c48b22"/><text x="881.0" y="138" text-anchor="middle" font-family="Arial" font-size="17" font-weight="700" fill="white">Translate</text><text x="881.0" y="163" text-anchor="middle" font-family="Arial" font-size="12" fill="white">Qwen/Ollama or</text><text x="881.0" y="180" text-anchor="middle" font-family="Arial" font-size="12" fill="white">Helsinki MarianMT</text><line x1="952" y1="154.0" x2="964" y2="154.0" stroke="#98a2b3" stroke-width="3"/><polygon points="964,148.0 974,154.0 964,160.0" fill="#98a2b3"/><rect x="969" y="110" width="132" height="88" rx="10" fill="#447a2f"/><text x="1035.0" y="138" text-anchor="middle" font-family="Arial" font-size="17" font-weight="700" fill="white">Classify</text><text x="1035.0" y="163" text-anchor="middle" font-family="Arial" font-size="12" fill="white">category, department,</text><text x="1035.0" y="180" text-anchor="middle" font-family="Arial" font-size="12" fill="white">urgency, risk flags</text><line x1="1106" y1="154.0" x2="1118" y2="154.0" stroke="#98a2b3" stroke-width="3"/><polygon points="1118,148.0 1128,154.0 1118,160.0" fill="#98a2b3"/><rect x="1123" y="110" width="132" height="88" rx="10" fill="#2d607d"/><text x="1189.0" y="138" text-anchor="middle" font-family="Arial" font-size="17" font-weight="700" fill="white">Export</text><text x="1189.0" y="163" text-anchor="middle" font-family="Arial" font-size="12" fill="white">redacted image, txt,</text><text x="1189.0" y="180" text-anchor="middle" font-family="Arial" font-size="12" fill="white">JSON, DOCX, audit</text><text x="45" y="255" font-family="Arial" font-size="16" fill="#344054">Core message: the demo is already end-to-end local. The weak point is handwritten transcription quality, so the product now has a VLM upgrade slot and forced review when confidence is low.</text>
</svg>