<svg xmlns="http://www.w3.org/2000/svg" width="1120" height="540" viewBox="0 0 1120 540">
  <rect width="100%" height="100%" fill="#ffffff"/>
  <text x="40" y="42" font-family="Inter, Arial, sans-serif" font-size="28" font-weight="700" fill="#172033">Measured Demo Quality Metrics</text>
  <text x="40" y="66" font-size="18" fill="#5b677a">Real outputs from this codebase, not theoretical claims</text>
  <line x1="85" y1="420.0" x2="995" y2="420.0" stroke="#e4e7ec"/><text x="73" y="425.0" text-anchor="end" font-family="Arial" font-size="13" fill="#667085">0%</text><line x1="85" y1="360.0" x2="995" y2="360.0" stroke="#e4e7ec"/><text x="73" y="365.0" text-anchor="end" font-family="Arial" font-size="13" fill="#667085">20%</text><line x1="85" y1="300.0" x2="995" y2="300.0" stroke="#e4e7ec"/><text x="73" y="305.0" text-anchor="end" font-family="Arial" font-size="13" fill="#667085">40%</text><line x1="85" y1="240.0" x2="995" y2="240.0" stroke="#e4e7ec"/><text x="73" y="245.0" text-anchor="end" font-family="Arial" font-size="13" fill="#667085">60%</text><line x1="85" y1="180.0" x2="995" y2="180.0" stroke="#e4e7ec"/><text x="73" y="185.0" text-anchor="end" font-family="Arial" font-size="13" fill="#667085">80%</text><line x1="85" y1="120.0" x2="995" y2="120.0" stroke="#e4e7ec"/><text x="73" y="125.0" text-anchor="end" font-family="Arial" font-size="13" fill="#667085">100%</text><rect x="130" y="120.0" width="120" height="300.0" rx="6" fill="#2457c5"/><text x="190.0" y="110.0" text-anchor="middle" font-family="Arial" font-size="18" font-weight="700" fill="#172033">100.0%</text><text x="190.0" y="448" text-anchor="middle" font-family="Arial" font-size="13" fill="#344054">Text redaction</text><text x="190.0" y="464" text-anchor="middle" font-family="Arial" font-size="13" fill="#344054">50-case evaluator</text><rect x="300" y="153.7332002380806" width="120" height="266.2667997619194" rx="6" fill="#2d7a78"/><text x="360.0" y="143.7332002380806" text-anchor="middle" font-family="Arial" font-size="18" font-weight="700" fill="#172033">88.8%</text><text x="360.0" y="448" text-anchor="middle" font-family="Arial" font-size="13" fill="#344054">Handwriting avg</text><text x="360.0" y="464" text-anchor="middle" font-family="Arial" font-size="13" fill="#344054">transcription similarity</text><rect x="470" y="167.22222222222223" width="120" height="252.77777777777777" rx="6" fill="#c48b22"/><text x="530.0" y="157.22222222222223" text-anchor="middle" font-family="Arial" font-size="18" font-weight="700" fill="#172033">84.3%</text><text x="530.0" y="448" text-anchor="middle" font-family="Arial" font-size="13" fill="#344054">Handwriting required</text><text x="530.0" y="464" text-anchor="middle" font-family="Arial" font-size="13" fill="#344054">field recall</text><rect x="640" y="120.0" width="120" height="300.0" rx="6" fill="#447a2f"/><text x="700.0" y="110.0" text-anchor="middle" font-family="Arial" font-size="18" font-weight="700" fill="#172033">100.0%</text><text x="700.0" y="448" text-anchor="middle" font-family="Arial" font-size="13" fill="#344054">Review flag</text><text x="700.0" y="464" text-anchor="middle" font-family="Arial" font-size="13" fill="#344054">correctness</text><rect x="810" y="120.0" width="120" height="300.0" rx="6" fill="#c43d4b"/><text x="870.0" y="110.0" text-anchor="middle" font-family="Arial" font-size="18" font-weight="700" fill="#172033">100.0%</text><text x="870.0" y="448" text-anchor="middle" font-family="Arial" font-size="13" fill="#344054">Missed useful</text><text x="870.0" y="464" text-anchor="middle" font-family="Arial" font-size="13" fill="#344054">redactions</text><text x="85" y="500" font-family="Arial" font-size="15" fill="#667085">Measured from: project/backend/data/processed/handwriting_eval/handwriting_report.json</text>
</svg>