<svg xmlns="http://www.w3.org/2000/svg" width="1050" height="545" viewBox="0 0 1050 545">
  <rect width="100%" height="100%" fill="#ffffff"/>
  <text x="40" y="42" font-family="Inter, Arial, sans-serif" font-size="28" font-weight="700" fill="#172033">Potential Staff Time Saving Per Document</text>
  <text x="40" y="66" font-size="18" fill="#5b677a">Conservative demo assumption, not a production time study</text>
  <line x1="100" y1="420.0" x2="920" y2="420.0" stroke="#e4e7ec"/><text x="88" y="425.0" text-anchor="end" font-family="Arial" font-size="13" fill="#667085">0m</text><line x1="100" y1="360.0" x2="920" y2="360.0" stroke="#e4e7ec"/><text x="88" y="365.0" text-anchor="end" font-family="Arial" font-size="13" fill="#667085">2m</text><line x1="100" y1="300.0" x2="920" y2="300.0" stroke="#e4e7ec"/><text x="88" y="305.0" text-anchor="end" font-family="Arial" font-size="13" fill="#667085">4m</text><line x1="100" y1="240.0" x2="920" y2="240.0" stroke="#e4e7ec"/><text x="88" y="245.0" text-anchor="end" font-family="Arial" font-size="13" fill="#667085">6m</text><line x1="100" y1="180.0" x2="920" y2="180.0" stroke="#e4e7ec"/><text x="88" y="185.0" text-anchor="end" font-family="Arial" font-size="13" fill="#667085">8m</text><line x1="100" y1="120.0" x2="920" y2="120.0" stroke="#e4e7ec"/><text x="88" y="125.0" text-anchor="end" font-family="Arial" font-size="13" fill="#667085">10m</text><rect x="190" y="120.0" width="150" height="300.0" rx="8" fill="#9a3412"/><text x="265.0" y="108.0" text-anchor="middle" font-family="Arial" font-size="20" font-weight="700" fill="#172033">10.0 min</text><text x="265.0" y="450" text-anchor="middle" font-family="Arial" font-size="14" fill="#344054">Manual read,</text><text x="265.0" y="467" text-anchor="middle" font-family="Arial" font-size="14" fill="#344054">redact, route</text><rect x="435" y="351.0" width="150" height="69.0" rx="8" fill="#2457c5"/><text x="510.0" y="339.0" text-anchor="middle" font-family="Arial" font-size="20" font-weight="700" fill="#172033">2.3 min</text><text x="510.0" y="450" text-anchor="middle" font-family="Arial" font-size="14" fill="#344054">Current demo</text><text x="510.0" y="467" text-anchor="middle" font-family="Arial" font-size="14" fill="#344054">+ staff review</text><rect x="680" y="375.0" width="150" height="45.0" rx="8" fill="#447a2f"/><text x="755.0" y="363.0" text-anchor="middle" font-family="Arial" font-size="20" font-weight="700" fill="#172033">1.5 min</text><text x="755.0" y="450" text-anchor="middle" font-family="Arial" font-size="14" fill="#344054">With Qwen/Paddle</text><text x="755.0" y="467" text-anchor="middle" font-family="Arial" font-size="14" fill="#344054">handwriting layer</text><text x="100" y="505" font-family="Arial" font-size="15" fill="#667085">Operational assumption for slides: assisted review is much faster because OCR, redaction previews, routing and DOCX exports are pre-generated. Validate with staff time-and-motion before claiming production ROI.</text>
</svg>