<svg xmlns="http://www.w3.org/2000/svg" width="980" height="540" viewBox="0 0 980 540">
  <rect width="100%" height="100%" fill="#ffffff"/>
  <text x="40" y="42" font-family="Inter, Arial, sans-serif" font-size="28" font-weight="700" fill="#172033">Handwriting Gap: Safe Fallback vs Better Transcription</text>
  <text x="40" y="66" font-size="18" fill="#5b677a">Why the local VLM/OCR upgrade matters</text>
  <line x1="95" y1="410.0" x2="855" y2="410.0" stroke="#e4e7ec"/><text x="83" y="415.0" text-anchor="end" font-family="Arial" font-size="13" fill="#667085">0%</text><line x1="95" y1="352.0" x2="855" y2="352.0" stroke="#e4e7ec"/><text x="83" y="357.0" text-anchor="end" font-family="Arial" font-size="13" fill="#667085">20%</text><line x1="95" y1="294.0" x2="855" y2="294.0" stroke="#e4e7ec"/><text x="83" y="299.0" text-anchor="end" font-family="Arial" font-size="13" fill="#667085">40%</text><line x1="95" y1="236.0" x2="855" y2="236.0" stroke="#e4e7ec"/><text x="83" y="241.0" text-anchor="end" font-family="Arial" font-size="13" fill="#667085">60%</text><line x1="95" y1="178.0" x2="855" y2="178.0" stroke="#e4e7ec"/><text x="83" y="183.0" text-anchor="end" font-family="Arial" font-size="13" fill="#667085">80%</text><line x1="95" y1="120.0" x2="855" y2="120.0" stroke="#e4e7ec"/><text x="83" y="125.0" text-anchor="end" font-family="Arial" font-size="13" fill="#667085">100%</text><rect x="175" y="135.08000000000004" width="135" height="274.91999999999996" rx="8" fill="#447a2f"/><text x="242.5" y="123.08000000000004" text-anchor="middle" font-family="Arial" font-size="20" font-weight="700" fill="#172033">94.8%</text><text x="242.5" y="438" text-anchor="middle" font-family="Arial" font-size="14" fill="#344054">Generated forms</text><text x="242.5" y="455" text-anchor="middle" font-family="Arial" font-size="14" fill="#344054">field recall</text><rect x="420" y="410.0" width="135" height="0.0" rx="8" fill="#c43d4b"/><text x="487.5" y="392.0" text-anchor="middle" font-family="Arial" font-size="20" font-weight="700" fill="#172033">0.0%</text><text x="487.5" y="438" text-anchor="middle" font-family="Arial" font-size="14" fill="#344054">Real screenshot</text><text x="487.5" y="455" text-anchor="middle" font-family="Arial" font-size="14" fill="#344054">field recall</text><rect x="665" y="120.0" width="135" height="290.0" rx="8" fill="#2457c5"/><text x="732.5" y="108.0" text-anchor="middle" font-family="Arial" font-size="20" font-weight="700" fill="#172033">100.0%</text><text x="732.5" y="438" text-anchor="middle" font-family="Arial" font-size="14" fill="#344054">System safety</text><text x="732.5" y="455" text-anchor="middle" font-family="Arial" font-size="14" fill="#344054">review flag</text><text x="95" y="500" font-family="Arial" font-size="15" fill="#667085">Conclusion for the deck: current system is safe, but handwriting accuracy needs PP-OCRv5/Qwen2.5-VL before automatic handling of handwritten letters.</text>
</svg>