<svg xmlns="http://www.w3.org/2000/svg" width="1040" height="560" viewBox="0 0 1040 560">
  <rect width="100%" height="100%" fill="#ffffff"/>
  <text x="40" y="42" font-family="Inter, Arial, sans-serif" font-size="28" font-weight="700" fill="#172033">Local AI Cost Structure</text>
  <text x="40" y="66" font-size="18" fill="#5b677a">The system avoids paid OCR/LLM APIs by design</text>
  <line x1="95" y1="420.0" x2="915" y2="420.0" stroke="#e4e7ec"/><text x="83" y="425.0" text-anchor="end" font-family="Arial" font-size="13" fill="#667085">£0</text><line x1="95" y1="345.0" x2="915" y2="345.0" stroke="#e4e7ec"/><text x="83" y="350.0" text-anchor="end" font-family="Arial" font-size="13" fill="#667085">£1000</text><line x1="95" y1="270.0" x2="915" y2="270.0" stroke="#e4e7ec"/><text x="83" y="275.0" text-anchor="end" font-family="Arial" font-size="13" fill="#667085">£2000</text><line x1="95" y1="195.0" x2="915" y2="195.0" stroke="#e4e7ec"/><text x="83" y="200.0" text-anchor="end" font-family="Arial" font-size="13" fill="#667085">£3000</text><line x1="95" y1="120.0" x2="915" y2="120.0" stroke="#e4e7ec"/><text x="83" y="125.0" text-anchor="end" font-family="Arial" font-size="13" fill="#667085">£4000</text><rect x="150" y="416" width="110" height="4" fill="#447a2f"/><text x="205.0" y="408.0" text-anchor="middle" font-family="Arial" font-size="16" font-weight="700" fill="#172033">£0 extra</text><text x="205.0" y="450" text-anchor="middle" font-family="Arial" font-size="13" fill="#344054">Current demo</text><text x="205.0" y="467" text-anchor="middle" font-family="Arial" font-size="13" fill="#344054">Mac/local only</text><rect x="340" y="416" width="110" height="4" fill="#447a2f"/><text x="395.0" y="408.0" text-anchor="middle" font-family="Arial" font-size="16" font-weight="700" fill="#172033">£0 extra</text><text x="395.0" y="450" text-anchor="middle" font-family="Arial" font-size="13" fill="#344054">M4 + Qwen 3B</text><text x="395.0" y="467" text-anchor="middle" font-family="Arial" font-size="13" fill="#344054">MLX install</text><rect x="530" y="352.5" width="110" height="67.5" fill="#2457c5"/><text x="585.0" y="340.5" text-anchor="middle" font-family="Arial" font-size="16" font-weight="700" fill="#172033">~£900</text><text x="585.0" y="450" text-anchor="middle" font-family="Arial" font-size="13" fill="#344054">Cheap GPU node</text><text x="585.0" y="467" text-anchor="middle" font-family="Arial" font-size="13" fill="#344054">7B/batch</text><rect x="720" y="157.5" width="110" height="262.5" fill="#2457c5"/><text x="775.0" y="145.5" text-anchor="middle" font-family="Arial" font-size="16" font-weight="700" fill="#172033">~£3,500</text><text x="775.0" y="450" text-anchor="middle" font-family="Arial" font-size="13" fill="#344054">Council batch</text><text x="775.0" y="467" text-anchor="middle" font-family="Arial" font-size="13" fill="#344054">workstation</text><rect x="760" y="92" width="14" height="14" fill="#c43d4b"/><text x="780" y="104" font-family="Arial" font-size="13" fill="#344054">Paid API: £0 in all local designs</text><text x="95" y="520" font-family="Arial" font-size="15" fill="#667085">Main cost is one-time hardware and maintenance, not per-document API calls. Procurement prices are estimates and should be refreshed before a formal business case.</text>
</svg>